<svg xmlns="http://www.w3.org/2000/svg" viewBox="0 0 464.9 311.53">
  <title>full</title>
  <g id="Layer_2" data-name="Layer 2">
    <g id="hanger">
      <path d="M452.24,262.24,248,136v-9A64.55,64.55,0,0,0,296.4,62,64.7,64.7,0,0,0,234.47.05a64.48,64.48,0,0,0-67,64.43,16,16,0,1,0,32,0A32.5,32.5,0,0,1,233.25,32,32.58,32.58,0,0,1,264.42,63.2,32.48,32.48,0,0,1,232,97a16,16,0,0,0-16,16v32a16,16,0,0,0,7.59,13.61l195.8,121H44.58l145.64-90A16,16,0,1,0,173.4,162.3L12.84,261.53a27.05,27.05,0,0,0,3.9,48v-3.17h3v4.18a27.56,27.56,0,0,0,7.31,1h4.43V298.3h3v13.23H46.22v-5.18h3v5.18H61v-5.18h3v5.18H75.7V298.3h3v13.23H90.44v-5.18h3v5.18h11.74v-5.18h3v5.18h11.74V298.3h3v13.23h11.74v-5.18h3v5.18H149.4v-5.18h3v5.18h11.74V298.3h3v13.23h11.74v-5.18h3v5.18h11.74v-5.18h3v5.18h11.74V298.3h3v13.23H223.1v-5.18h3v5.18h11.74v-5.18h3v5.18h11.74V298.3h3v13.23h11.74v-5.18h3v5.18h11.74v-5.18h3v5.18H296.8V298.3h3v13.23h11.74v-5.18h3v5.18h11.74v-5.18h3v5.18H341V298.3h3v13.23h11.74v-5.18h3v5.18H370.5v-5.18h3v5.18h11.74V298.3h3v13.23H400v-5.18h3v5.18h11.74v-5.18h3v5.18h11.74V298.3h3v13.23h5.78a27.22,27.22,0,0,0,6-.67v-4.51h3V310a26.65,26.65,0,0,0,5-47.76Z" fill="#0f0823"/>
    </g>
  </g>
</svg>
